<svg width="24" height="24" viewBox="0 0 24 24" fill="none" xmlns="http://www.w3.org/2000/svg">
<path fill-rule="evenodd" clip-rule="evenodd" d="M12 2.23607C11.5993 2.23607 11.1986 2.4664 11.0489 2.92705L9.53035 7.60081C9.39647 8.01284 9.01252 8.2918 8.57929 8.2918H3.66501C2.69628 8.2918 2.29351 9.53141 3.07722 10.1008L7.05296 12.9894C7.40345 13.244 7.55011 13.6954 7.41623 14.1074L5.89763 18.7812C5.59828 19.7025 6.65276 20.4686 7.43648 19.8992L11.4122 17.0106C11.5875 16.8833 11.7937 16.8197 12 16.8197V2.23607Z" fill="#EEB931"/>
<path fill-rule="evenodd" clip-rule="evenodd" d="M12 2C12.4007 2 12.8014 2.23033 12.9511 2.69098L14.4697 7.36474C14.6035 7.77677 14.9875 8.05573 15.4207 8.05573H20.335C21.3037 8.05573 21.7065 9.29534 20.9228 9.86475L16.947 12.7533C16.5966 13.0079 16.4499 13.4593 16.5838 13.8713L18.1024 18.5451C18.4017 19.4664 17.3472 20.2325 16.5635 19.6631L12.5878 16.7746C12.4125 16.6473 12.2063 16.5836 12 16.5836V2Z" fill="#E6E6E6"/>
</svg>
